/* XPM */
static char *gksuexec_xpm[] = {
"32 32 702 2",
"  	c None",
"BA	c #040405",
"CA	c #050505",
"DA	c #050405",
"EA	c #040404",
"FA	c #040304",
"GA	c #030304",
"HA	c #030303",
"IA	c #030203",
"JA	c #010101",
"KA	c #392C3A",
"LA	c #1D2226",
"MA	c #BDBAC2",
"NA	c #CCC3CD",
"OA	c #CDC6CE",
"PA	c #CEC7CF",
"QA	c #C8C5CC",
"RA	c #CCC5CF",
"SA	c #D0C6CF",
"TA	c #CFC4CE",
"UA	c #CCBFCC",
"VA	c #C8C0C9",
"WA	c #C7BFC8",
"XA	c #C8BCC7",
"YA	c #C5BBC7",
"ZA	c #C4B8C5",
"aA	c #BAAEBB",
"bA	c #B6A6B6",
"cA	c #B1A1B4",
"dA	c #A69DAF",
"eA	c #A999A9",
"fA	c #A596A5",
"gA	c #A08EA1",
"hA	c #9C89A0",
"iA	c #98889E",
"jA	c #675269",
"kA	c #564457",
"lA	c #3A413D",
"mA	c #F0E7F3",
"nA	c #DDBFDE",
"oA	c #E3CBE6",
"pA	c #E5CEE8",
"qA	c #E5D0E9",
"rA	c #E6D2EA",
"sA	c #E7D3EA",
"tA	c #E8D2EB",
"uA	c #E7D3EB",
"vA	c #E9CFEB",
"wA	c #E5CFE8",
"xA	c #E5C9E9",
"yA	c #E2C6E4",
"zA	c #DFC2E1",
"0A	c #DBBFDE",
"1A	c #D7BAD9",
"2A	c #D1B4D3",
"3A	c #CDADCE",
"4A	c #C6A8C8",
"5A	c #BFA2C2",
"6A	c #BB9BBC",
"7A	c #B491B3",
"8A	c #A98BAB",
"9A	c #A98BAD",
"+A	c #6B5A70",
"/A	c #1F1823",
"AB	c #3D3C3D",
"BB	c #E9DDEB",
"CB	c #D3B8D5",
"DB	c #CAB1CC",
"EB	c #C8B2C3",
"FB	c #CAB5C3",
"GB	c #CAB7C3",
"HB	c #CBB7C3",
"IB	c #CAB7C2",
"JB	c #CAB6C3",
"KB	c #C9B5C2",
"LB	c #C8B1C1",
"MB	c #C5ADBE",
"NB	c #C8ABBD",
"OB	c #C0ABB9",
"PB	c #BBA5B6",
"QB	c #B8A5B4",
"RB	c #B4A0B0",
"SB	c #B49AAD",
"TB	c #B294A8",
"UB	c #A98F9F",
"VB	c #A38999",
"WB	c #A18194",
"XB	c #977D8D",
"YB	c #8F7890",
"ZB	c #9B7D9D",
"aB	c #9F7D9F",
"bB	c #634F65",
"cB	c #0F0A10",
"dB	c #3C3C3C",
"eB	c #EBDEEC",
"fB	c #9E8C97",
"gB	c #000056",
"hB	c #0F0276",
"iB	c #0D0074",
"jB	c #0E0075",
"kB	c #0E0076",
"lB	c #0F0077",
"mB	c #110376",
"nB	c #190178",
"oB	c #180478",
"pB	c #1A0478",
"qB	c #1A0578",
"rB	c #16057A",
"sB	c #170579",
"tB	c #190579",
"uB	c #170279",
"vB	c #160079",
"wB	c #100274",
"xB	c #0B0172",
"yB	c #0D006F",
"zB	c #020073",
"0B	c #1D1744",
"1B	c #B190AE",
"2B	c #977798",
"3B	c #644B66",
"4B	c #0C080D",
"5B	c #3D3C3C",
"6B	c #EADEEB",
"7B	c #D8BFDE",
"8B	c #9E8B8E",
"9B	c #0000B2",
"+B	c #6040FD",
"/B	c #5C3AF5",
"AC	c #5C3DF7",
"BC	c #5D42F5",
"CC	c #5B3DF6",
"DC	c #5128F7",
"EC	c #451CF5",
"FC	c #380CF2",
"GC	c #2D01F0",
"HC	c #2500EC",
"IC	c #2800E6",
"JC	c #2800E0",
"KC	c #2600DF",
"LC	c #2200DE",
"MC	c #1E00DC",
"NC	c #1A00D9",
"OC	c #1C00D3",
"PC	c #1900CD",
"QC	c #1100D5",
"RC	c #261578",
"SC	c #B490AA",
"TC	c #8F7293",
"UC	c #614762",
"VC	c #0B070B",
"WC	c #3C3B3B",
"XC	c #E7DAE8",
"YC	c #D6BCDB",
"ZC	c #9D848C",
"aC	c #0000A5",
"bC	c #7355F7",
"cC	c #6E53F0",
"dC	c #7156F5",
"eC	c #6951F3",
"fC	c #5F41EE",
"gC	c #5632F0",
"hC	c #4824ED",
"iC	c #3A17E5",
"jC	c #3009E2",
"kC	c #2400DD",
"lC	c #2900D9",
"mC	c #2400D7",
"nC	c #2700D6",
"oC	c #2800D3",
"pC	c #2700D1",
"qC	c #2200CE",
"rC	c #1C00C8",
"sC	c #1D00BF",
"tC	c #1300C7",
"uC	c #26166F",
"vC	c #AE8BA5",
"wC	c #8A6D8D",
"xC	c #5D455F",
"yC	c #0A060A",
"zC	c #373C3B",
"0C	c #E0D7E8",
"1C	c #D5B6D8",
"2C	c #998288",
"3C	c #0000AC",
"4C	c #7355FB",
"5C	c #694DF0",
"6C	c #6241EF",
"7C	c #5431F2",
"8C	c #4D29EF",
"9C	c #4923EA",
"+C	c #3E15E7",
"/C	c #2E07E6",
"AD	c #2100E0",
"BD	c #2900DE",
"CD	c #2500DF",
"DD	c #2100DA",
"ED	c #2300D9",
"FD	c #2500DA",
"GD	c #2400D9",
"HD	c #2500D4",
"ID	c #1F00CE",
"JD	c #1F00C5",
"KD	c #1400CC",
"LD	c #23156F",
"MD	c #A886A1",
"ND	c #866687",
"OD	c #534257",
"PD	c #080609",
"QD	c #3A3E3B",
"RD	c #E3D5E5",
"SD	c #D0B0D3",
"TD	c #917F84",
"UD	c #0000AE",
"VD	c #6341F9",
"WD	c #512FF1",
"XD	c #4C26EE",
"YD	c #4925E9",
"ZD	c #411BEB",
"aD	c #3C14EB",
"bD	c #350FE5",
"cD	c #2C09E1",
"dD	c #2D09E0",
"eD	c #2D07E0",
"fD	c #2B05E4",
"gD	c #2903E1",
"hD	c #2A00E0",
"iD	c #2A00DA",
"jD	c #2400DA",
"kD	c #2600D7",
"lD	c #2300D0",
"mD	c #1E00C7",
"nD	c #1300CB",
"oD	c #221571",
"pD	c #A2829D",
"qD	c #816081",
"rD	c #513D53",
"sD	c #080508",
"tD	c #D8D0E0",
"uD	c #C9AACD",
"vD	c #8C7E7E",
"wD	c #0000B1",
"xD	c #4F29F3",
"yD	c #411AE8",
"zD	c #3F20E8",
"0D	c #3812E7",
"1D	c #3517E5",
"2D	c #391AE6",
"3D	c #3915E9",
"4D	c #320EE8",
"5D	c #2F09E4",
"6D	c #2C06E7",
"7D	c #2804E1",
"8D	c #2A01E3",
"9D	c #2500E2",
"+D	c #2600DA",
"/D	c #2700D8",
"AE	c #2300D2",
"BE	c #1600CD",
"CE	c #221372",
"DE	c #9D7C97",
"EE	c #7A5A7B",
"FE	c #4D3A50",
"GE	c #070508",
"HE	c #373838",
"IE	c #D8C4D8",
"JE	c #C5A3C7",
"KE	c #8E737A",
"LE	c #0000B7",
"ME	c #3B09EE",
"NE	c #5A48E9",
"OE	c #D8D5F8",
"PE	c #0000E8",
"QE	c #B2AAF4",
"RE	c #A49FF1",
"SE	c #2800E8",
"TE	c #4222EB",
"UE	c #401CEB",
"VE	c #3E19EA",
"WE	c #3413E5",
"XE	c #3309E8",
"YE	c #2905E5",
"ZE	c #2A01E4",
"aE	c #2200DC",
"bE	c #2300DB",
"cE	c #2400D4",
"dE	c #1C00CA",
"eE	c #1700CF",
"fE	c #211271",
"gE	c #9A7591",
"hE	c #735474",
"iE	c #4F334D",
"jE	c #070407",
"kE	c #363737",
"lE	c #D4C0D3",
"mE	c #BC9BC0",
"nE	c #886E73",
"oE	c #0000E7",
"pE	c #6C52ED",
"qE	c #CDCAF6",
"rE	c #0000E2",
"sE	c #C7B9F9",
"tE	c #7E72EE",
"uE	c #2C00EA",
"vE	c #4D27EE",
"wE	c #4722EE",
"xE	c #441FE9",
"yE	c #3A18EA",
"zE	c #3912E9",
"0E	c #320DE3",
"1E	c #2E08E4",
"2E	c #2900E1",
"3E	c #2400DC",
"4E	c #2700D4",
"5E	c #1D00CA",
"6E	c #1600CE",
"7E	c #201071",
"8E	c #94708C",
"9E	c #6D4B70",
"+E	c #48304A",
"/E	c #060307",
"AF	c #373737",
"BF	c #CEBDCF",
"CF	c #B594B9",
"DF	c #7D686B",
"EF	c #1200B8",
"FF	c #A7A2F5",
"GF	c #C2B9F6",
"HF	c #D5CEF8",
"IF	c #A19FEE",
"JF	c #E2DBFB",
"KF	c #B9B0F8",
"LF	c #5437EC",
"MF	c #441CE9",
"NF	c #4823E9",
"OF	c #441FEC",
"PF	c #3E17E8",
"QF	c #3A16E9",
"RF	c #330BE7",
"SF	c #2907E2",
"TF	c #2600E0",
"UF	c #2400D8",
"VF	c #2600D3",
"WF	c #2200C7",
"XF	c #1400CD",
"YF	c #1E1070",
"ZF	c #906C87",
"aF	c #684669",
"bF	c #402E44",
"cF	c #050306",
"dF	c #353636",
"eF	c #C8B8CA",
"fF	c #AE8CB3",
"gF	c #7C6267",
"hF	c #1500B6",
"iF	c #A19DF0",
"jF	c #EEEFFC",
"kF	c #B6AFF6",
"lF	c #B0AAF5",
"mF	c #E9E9FA",
"nF	c #9C98EB",
"oF	c #553AEE",
"pF	c #4217ED",
"qF	c #451FED",
"rF	c #411DEC",
"sF	c #3E1AEB",
"tF	c #3A15E6",
"uF	c #300AE7",
"vF	c #2D04E6",
"wF	c #2600E1",
"xF	c #2300DA",
"yF	c #2500D0",
"zF	c #1D00C9",
"0F	c #200E71",
"1F	c #8B6682",
"2F	c #634164",
"3F	c #3D2B40",
"4F	c #050305",
"5F	c #363435",
"6F	c #C3B2C5",
"7F	c #A583AB",
"8F	c #7A5E61",
"9F	c #0000E1",
"+F	c #DFDDFE",
"/F	c #2100E8",
"AG	c #674CF2",
"BG	c #C5BCF6",
"CG	c #0000DD",
"DG	c #401BEA",
"EG	c #421EEB",
"FG	c #3C1CEB",
"GG	c #3B1BE8",
"HG	c #3E18EA",
"IG	c #3712E5",
"JG	c #300AE3",
"KG	c #2C06E4",
"LG	c #2500D2",
"MG	c #2000C9",
"NG	c #1C0D70",
"OG	c #86627E",
"PG	c #5E3C5F",
"QG	c #3A283D",
"RG	c #353135",
"SG	c #BDAABD",
"TG	c #9D7C9F",
"UG	c #634856",
"VG	c #7872C5",
"WG	c #DFDBFD",
"XG	c #F3F2FC",
"YG	c #D9DCF6",
"ZG	c #E4E0FA",
"aG	c #EBE7FA",
"bG	c #B4ACF0",
"cG	c #2D03E6",
"dG	c #3A15E8",
"eG	c #3C17E8",
"fG	c #330AE8",
"gG	c #2B05E6",
"hG	c #2702E3",
"iG	c #2300E1",
"jG	c #2200D8",
"kG	c #2700D7",
"lG	c #1D00D0",
"mG	c #1F00C6",
"nG	c #1500CE",
"oG	c #1D0C70",
"pG	c #835F79",
"qG	c #57385A",
"rG	c #372539",
"sG	c #040204",
"tG	c #2D2B32",
"uG	c #B09BB5",
"vG	c #977499",
"wG	c #6B504F",
"xG	c #0000BD",
"yG	c #A6A1EE",
"zG	c #C9BFF9",
"0G	c #3914EC",
"1G	c #E2E2FB",
"2G	c #8172F2",
"3G	c #3C26E5",
"4G	c #1D00E0",
"5G	c #0000DE",
"6G	c #0000DF",
"7G	c #1500DE",
"8G	c #2703DC",
"9G	c #2800DB",
"+G	c #2400D2",
"/G	c #2100CC",
"AH	c #1D00C2",
"BH	c #1700CB",
"CH	c #1D0B6E",
"DH	c #7C5A75",
"EH	c #513352",
"FH	c #362138",
"GH	c #2C292D",
"HH	c #A995AC",
"IH	c #8F6A94",
"JH	c #664C4D",
"KH	c #0000AB",
"LH	c #ADA7F3",
"MH	c #B4ADF4",
"NH	c #EAE5FD",
"OH	c #513DE0",
"PH	c #0000D7",
"QH	c #5D45E2",
"RH	c #CBC6F7",
"SH	c #DFDEF7",
"TH	c #DFDDF7",
"UH	c #7F6DF2",
"VH	c #1200D7",
"WH	c #2401D2",
"XH	c #2000D1",
"YH	c #2200CD",
"ZH	c #1B00C9",
"aH	c #1D00C4",
"bH	c #1B00BF",
"cH	c #1600C6",
"dH	c #1E0A6D",
"eH	c #7D5672",
"fH	c #4D2D4D",
"gH	c #331C35",
"hH	c #2A252B",
"iH	c #A28CA5",
"jH	c #88628C",
"kH	c #5F4442",
"lH	c #0000BC",
"mH	c #9B91FF",
"nH	c #8483E4",
"oH	c #2B00E3",
"pH	c #AFA4FB",
"qH	c #3217E0",
"rH	c #1900E6",
"sH	c #2A05E6",
"tH	c #4A38E5",
"uH	c #5142E4",
"vH	c #4E43E1",
"wH	c #3114E2",
"xH	c #1E00DF",
"yH	c #1C00DD",
"zH	c #1B00D8",
"0H	c #1B00D4",
"1H	c #1700D2",
"2H	c #1500CD",
"3H	c #1500C8",
"4H	c #1500D1",
"5H	c #180870",
"6H	c #79526E",
"7H	c #492849",
"8H	c #301A32",
"9H	c #030204",
"+H	c #29232A",
"/H	c #9C859F",
"AI	c #7F5A81",
"BI	c #5E4356",
"CI	c #201464",
"DI	c #0C0078",
"EI	c #100077",
"FI	c #2A1B78",
"GI	c #000075",
"HI	c #26157C",
"II	c #2A197C",
"JI	c #28157D",
"KI	c #1E087B",
"LI	c #19047A",
"MI	c #19017A",
"NI	c #220D77",
"OI	c #221278",
"PI	c #221178",
"QI	c #200F75",
"RI	c #1F0E72",
"SI	c #220C72",
"TI	c #220B6F",
"UI	c #220B6D",
"VI	c #1E0970",
"WI	c #2A1547",
"XI	c #794F78",
"YI	c #482646",
"ZI	c #311932",
"aI	c #040104",
"bI	c #262228",
"cI	c #957F99",
"dI	c #714D73",
"eI	c #98739A",
"fI	c #AC86A9",
"gI	c #AC87A3",
"hI	c #A986A5",
"iI	c #AB84A4",
"jI	c #AA84A3",
"kI	c #A780A2",
"lI	c #A67F9C",
"mI	c #A37B9C",
"nI	c #A1799A",
"oI	c #9C7796",
"pI	c #9A7194",
"qI	c #956D8E",
"rI	c #946A8B",
"sI	c #916788",
"tI	c #8A6188",
"uI	c #875E85",
"vI	c #8B5983",
"wI	c #8A5782",
"xI	c #86547E",
"yI	c #834D79",
"zI	c #855185",
"0I	c #653F67",
"1I	c #4C2848",
"2I	c #2F1A31",
"3I	c #242125",
"4I	c #8D7991",
"5I	c #6D4C6E",
"6I	c #6E4E6F",
"7I	c #69496C",
"8I	c #6B486D",
"9I	c #67486D",
"+I	c #68486C",
"/I	c #68456A",
"AJ	c #664268",
"BJ	c #623F64",
"CJ	c #613E62",
"DJ	c #5D3A5D",
"EJ	c #5A395B",
"FJ	c #563557",
"GJ	c #513254",
"HJ	c #523052",
"IJ	c #4E2E4E",
"JJ	c #4E2C4D",
"KJ	c #4D294D",
"LJ	c #49284A",
"MJ	c #432646",
"NJ	c #513351",
"OJ	c #634B66",
"PJ	c #4E354E",
"QJ	c #462443",
"RJ	c #512D4D",
"SJ	c #2C1B30",
"TJ	c #221C22",
"UJ	c #8A6F8B",
"VJ	c #694669",
"WJ	c #6F4E70",
"XJ	c #6F4D70",
"YJ	c #6F4C70",
"ZJ	c #6E4D71",
"aJ	c #6D4B6F",
"bJ	c #6B496E",
"cJ	c #6A466C",
"dJ	c #674369",
"eJ	c #654264",
"fJ	c #633E63",
"gJ	c #603C61",
"hJ	c #5E3A5F",
"iJ	c #5C375C",
"jJ	c #5B375B",
"kJ	c #583657",
"lJ	c #563457",
"mJ	c #553255",
"nJ	c #543152",
"oJ	c #4F2A4E",
"pJ	c #684D6A",
"qJ	c #4E314F",
"rJ	c #462847",
"sJ	c #4F2C4D",
"tJ	c #522E51",
"uJ	c #301D32",
"vJ	c #1B131B",
"wJ	c #755874",
"xJ	c #543755",
"yJ	c #5A3E5C",
"zJ	c #593E5C",
"0J	c #583E5A",
"1J	c #5B3D5B",
"2J	c #583C5A",
"3J	c #583A59",
"4J	c #543A57",
"5J	c #543855",
"6J	c #503552",
"7J	c #4C3550",
"8J	c #49344E",
"9J	c #49304B",
"+J	c #472F4A",
"/J	c #462E49",
"AK	c #452C47",
"BK	c #432A45",
"CK	c #422A43",
"DK	c #3C233E",
"EK	c #37233B",
"FK	c #3F2841",
"GK	c #3E253E",
"HK	c #422643",
"IK	c #371F39",
"JK	c #050205",
"KK	c #090A0B",
"LK	c #736874",
"MK	c #6D596B",
"NK	c #716071",
"OK	c #786779",
"PK	c #7E7180",
"QK	c #857585",
"RK	c #8B7E8C",
"SK	c #8E8090",
"TK	c #8D7D8E",
"UK	c #897A8B",
"VK	c #867785",
"WK	c #7C7384",
"XK	c #7D6F7F",
"YK	c #7A6A7B",
"ZK	c #746876",
"aK	c #6F6172",
"bK	c #6A596A",
"cK	c #675567",
"dK	c #645366",
"eK	c #655065",
"fK	c #665167",
"gK	c #6A516E",
"hK	c #332336",
"iK	c #030003",
"jK	c #060706",
"kK	c #2C262E",
"lK	c #19071B",
"mK	c #1E1022",
"nK	c #241623",
"oK	c #2A1C2B",
"pK	c #312431",
"qK	c #342B35",
"rK	c #372C37",
"sK	c #352737",
"tK	c #322734",
"uK	c #312731",
"vK	c #2F2231",
"wK	c #2E212F",
"xK	c #2A1C29",
"yK	c #261726",
"zK	c #221224",
"0K	c #1B0E1E",
"1K	c #19091A",
"2K	c #18081C",
"3K	c #1A0518",
"4K	c #1C0418",
"5K	c #1B041A",
"6K	c #09020A",
"7K	c #010001",
"8K	c #070607",
"9K	c #020102",
"                                                                ",
"    BACACACACACACACACACACADADADADADADAEAFAFAGAHAHAIAIAIAJA      ",
"                                                          KA    ",
"  LAMANAOAPAQARASASASASATAUAVAWAXAYAZAaAbAcAdAeAfAgAhAiAjA  kA  ",
"  lAmAnAoApAqArAsAtAuAtAvAwApAxAyAzA0A1A2A3A4A5A6A7A8A9A+A  /A  ",
"  ABBBCBDBEBFBGBHBIBJBKBLBMBNBOBPBQBRBSBTBUBVBWBXBYBZBaBbB  cB  ",
"  dBeB0AfBgBhBiBjBkBlBmBnBoBpBqBrBsBtBuBvBwBxByBzB0B1B2B3B  4B  ",
"  5B6B7B8B9B+B/BACBCCCDCECFCGCHCICJCKCLCMCNCOCPCQCRCSCTCUC  VC  ",
"  WCXCYCZCaCbCcCdCeCfCgChCiCjCkClCmCnCoCpCqCrCsCtCuCvCwCxC  yC  ",
"  zC0C1C2C3C4C5C6C7C8C9C+C/CADBDCDDDEDFDGDHDIDJDKDLDMDNDOD  PD  ",
"  QDRDSDTDUDVDWDXDYDZDaDbDcDdDeDfDgDhDiDjDkDlDmDnDoDpDqDrD  sD  ",
"  zCtDuDvDwDxDyDzD0D1D2D3D3D4D5D6D7D8D9D+D/DAEmDBECEDEEEFE  GE  ",
"  HEIEJEKELEMENEOEPEQERESETEUEVEWEXEYEZEaEbEcEdEeEfEgEhEiE  jE  ",
"  kElEmEnELEoEpEqErEsEtEuEvEwExEyEzE0E1E2E3E4E5E6E7E8E9E+E  /E  ",
"  AFBFCFDFEFFFGFHFIFJFKFLFMFNFOFPFQFRFSFTFUFVFWFXFYFZFaFbF  cF  ",
"  dFeFfFgFhFiFjFkFlFmFnFoFpFqFrFsFtFuFvFwFxFyFzFeE0F1F2F3F  4F  ",
"  5F6F7F8F9B9F+F/FAGBGCGDGEGFGGGHGIGJGKGJCEDLGMG6ENGOGPGQG  4F  ",
"  RGSGTGUGVGWGXGYGZGaGbGcGdGeGQFfGgGhGiGjGkGlGmGnGoGpGqGrG  sG  ",
"  tGuGvGwGxGyGzG0G1G2G3G4G5G5G6G7G8GBD9GoC+G/GAHBHCHDHEHFH  sG  ",
"  GHHHIHJHKHLHMH9FNHOHPHQHRHSHTHUHVHWHXHYHZHaHbHcHdHeHfHgH  sG  ",
"  hHiHjHkHlHmHnHoHpHqHrHsHtHuHvHwHxHyHzH0H1H2H3H4H5H6H7H8H  9H  ",
"  +H/HAIBICIDIEIFIGIHIIIJIKILIMINIOIPIQIRISITIUIVIWIXIYIZI  aI  ",
"  bIcIdIeIfIgIhIiIjIkIlImInIoIpIqIrIsItIuIvIwIxIyIzI0I1I2I  9H  ",
"  3I4I5I6I7I8I9I+I/IAJBJCJDJEJFJGJHJIJJJKJLJMJNJOJPJQJRJSJ  IA  ",
"  TJUJVJWJXJYJZJaJbJcJdJeJfJgJhJiJjJkJlJmJnJoJpJqJrJsJtJuJ  sG  ",
"  vJwJxJyJzJyJ0J1J2J3J4J5J6J7J8J9J+J/JAKBKCKBKDKEKFKGKHKIK  JK  ",
"      KKLKMKNKOKPKQKRKSKTKUKVKWKXKYKZKaKbKcKdKeKfKgKhK  iK      ",
"JA    jKkKlKmKnKoKpKqKrKsKtKuKvKwKxKyKzK0K1K2K3K4K5K6K          ",
"    IA                                                7K        ",
"        8KIAIAIAsGFADADA4FFAFAFAFAIAIAIA9K9K9K9K9K9K7K          ",
"                                                                ",
"                                                                "
};
